<svg width="244" height="212" viewBox="0 0 244 212" fill="none" xmlns="http://www.w3.org/2000/svg">
<g clip-path="url(#clip0_4_1027)">
<path fill-rule="evenodd" clip-rule="evenodd" d="M74.6045 108.588L133.826 211.391L106.587 211.635L90.778 183.985L74.8477 211.452H61.2888L54.3573 199.454L77.0366 160.355L60.924 132.279L74.6045 108.588Z" fill="url(#paint0_linear_4_1027)"/>
<path fill-rule="evenodd" clip-rule="evenodd" d="M96.007 66.2614L36.7246 169.064L22.9225 145.556L38.9135 118.028L7.17468 117.967L0.364815 106.213L7.29629 94.2154L52.4725 94.3372L68.7067 66.3223L96.007 66.2614Z" fill="url(#paint1_linear_4_1027)"/>
<path fill-rule="evenodd" clip-rule="evenodd" d="M100.506 148.418H219.01L205.634 172.17L173.834 172.109L189.643 199.637L182.894 211.391H169.091L146.655 172.17L114.309 172.109L100.506 148.418Z" fill="url(#paint2_linear_4_1027)"/>
<path fill-rule="evenodd" clip-rule="evenodd" d="M74.6045 108.588L133.826 211.391L106.587 211.635L90.778 183.985L74.8477 211.452H61.2888L54.3573 199.454L77.0366 160.355L60.924 132.279L74.6045 108.588Z" fill="url(#paint3_linear_4_1027)"/>
<path fill-rule="evenodd" clip-rule="evenodd" d="M143.311 63.3381H24.8074L38.1839 39.5863L69.9836 39.6472L54.1749 12.1195L60.924 0.365417H74.7261L97.2838 39.5863L129.631 39.6472L143.311 63.3381Z" fill="url(#paint4_linear_4_1027)"/>
<path fill-rule="evenodd" clip-rule="evenodd" d="M236.825 94.2764L205.086 94.2155L221.077 66.6877L207.215 43.1796L156.992 126.92L152.249 111.816C159.302 106.579 163.862 98.235 163.862 88.8561H96.3718C96.3718 98.1741 100.871 106.518 107.863 111.755L100.446 135.324H110.66L112.059 114.313C115.95 116.323 120.328 117.419 124.949 117.419H135.346C139.906 117.419 144.284 116.323 148.115 114.374L149.513 135.324H152.006H139.177V131.061H121.179V135.324H92.8452L98.8039 145.799L175.354 145.982L191.588 117.967L236.765 118.089L243.696 106.091L236.825 94.2764Z" fill="url(#paint5_linear_4_1027)"/>
<path fill-rule="evenodd" clip-rule="evenodd" d="M130.178 120.342C133.279 122.9 133.279 127.772 130.178 130.269C127.016 127.772 127.016 122.9 130.178 120.342Z" fill="#DD0000"/>
<path d="M130.178 112.425C125.253 112.425 121.24 108.406 121.24 103.473V94.52H139.055V103.473C139.116 108.406 135.103 112.425 130.178 112.425Z" fill="#DD0000"/>
<path d="M131.698 99.2703H128.719V107.675H131.698V99.2703Z" fill="white"/>
<path d="M134.405 105.003V102.019H126.014V105.003H134.405Z" fill="white"/>
<path fill-rule="evenodd" clip-rule="evenodd" d="M189.703 12.4849L182.772 0.487222H169.213L153.283 27.954L137.474 0.365417L110.235 0.609026L157.721 82.9486H89.2579L91.994 90.2568H161.917L169.517 103.412L183.137 79.6599L167.024 51.584L189.703 12.4849Z" fill="url(#paint6_linear_4_1027)"/>
<path d="M173.652 55.2382C172.496 54.3246 170.794 54.5073 169.943 55.6645L158.998 69.3674C158.633 69.8546 158.451 70.4637 158.451 71.0118C158.451 71.0118 158.451 71.5599 158.694 72.1689C158.755 72.2907 158.816 72.3516 158.877 72.4734C159.12 72.8997 159.545 73.3261 160.214 73.5088C160.275 73.5697 160.397 73.5697 160.458 73.5697C160.822 73.6306 161.309 73.6306 161.856 73.5697C162.342 73.4479 162.829 73.1434 163.194 72.6561L174.077 58.9532C174.989 57.8569 174.746 56.1517 173.652 55.2382Z" fill="#DD0000"/>
<path d="M158.39 71.0727C158.39 71.499 158.451 71.8644 158.633 72.2298C158.39 71.6208 158.39 71.0727 158.39 71.0727Z" fill="#DD0000"/>
<path d="M158.816 72.5343L150.547 83.0095H152.675L160.153 73.5697C159.485 73.387 159.059 72.9606 158.816 72.5343Z" fill="url(#paint7_linear_4_1027)"/>
<path d="M160.397 73.6306C160.883 73.7524 161.309 73.7524 161.795 73.6306C161.248 73.6915 160.762 73.6915 160.397 73.6306Z" fill="#DD0000"/>
<path d="M104.459 68.393C104.337 68.3321 104.215 68.2712 104.094 68.2103C104.215 68.3321 104.337 68.393 104.459 68.393Z" fill="#DD0000"/>
<path d="M107.985 66.9314C108.167 66.4441 108.228 65.896 108.107 65.3479L103.546 48.3562C103.182 46.9555 101.722 46.1029 100.324 46.4683C98.9255 46.8337 98.0743 48.2953 98.4391 49.6961L102.999 66.6877C103.121 67.2359 103.486 67.6622 103.85 68.0276C103.972 68.0885 104.033 68.1494 104.155 68.2103C104.276 68.2712 104.337 68.3321 104.519 68.393C104.641 68.4539 104.763 68.5148 104.884 68.5148C105.006 68.5757 105.127 68.5757 105.188 68.5757C105.249 68.5757 105.371 68.5757 105.431 68.5757C106.161 68.7584 107.195 68.4539 107.985 66.9314Z" fill="#DD0000"/>
<path d="M105.127 68.6366C105.006 68.6366 104.884 68.5757 104.823 68.5757C104.884 68.5757 105.006 68.5757 105.127 68.6366Z" fill="#DD0000"/>
<path d="M104.154 68.2712C104.033 68.2103 103.911 68.1494 103.85 68.0885C103.79 68.0276 103.911 68.1494 104.154 68.2712Z" fill="#DD0000"/>
<path d="M104.823 68.5757C104.702 68.5148 104.58 68.5148 104.459 68.4539C104.58 68.4539 104.702 68.5148 104.823 68.5757Z" fill="#DD0000"/>
<path d="M107.985 66.9314C107.195 68.4539 106.161 68.7584 105.371 68.6975L109.201 83.0095H110.904L106.951 68.2712C107.438 67.9058 107.803 67.4186 107.985 66.9314Z" fill="url(#paint8_linear_4_1027)"/>
<path d="M129.205 64.7998C129.327 65.287 129.631 65.7742 129.996 66.1396C129.448 65.5306 129.266 64.7998 129.266 64.7998H129.205Z" fill="#DD0000"/>
<path d="M135.65 44.3367C134.252 44.0322 132.792 45.0066 132.549 46.4074L129.205 63.6426C129.144 64.008 129.144 64.4344 129.205 64.7389L129.266 64.678C129.266 64.678 129.448 65.4088 129.996 66.0178C130.117 66.1396 130.3 66.2614 130.482 66.3832V66.4441C130.968 66.7486 131.637 66.9313 132.61 66.6268C133.522 66.3223 134.252 65.5915 134.434 64.5562L137.778 47.3209C138.021 45.981 137.109 44.5803 135.65 44.3367Z" fill="#DD0000"/>
<path d="M130.482 66.505L127.259 83.0095H128.962L132.124 66.8095C132.306 66.8095 132.428 66.7486 132.61 66.6877C131.637 66.9314 130.968 66.8095 130.482 66.505Z" fill="url(#paint9_linear_4_1027)"/>
</g>
<defs>
<linearGradient id="paint0_linear_4_1027" x1="44.118" y1="118.74" x2="87.6162" y2="193.849" gradientUnits="userSpaceOnUse">
<stop stop-color="#699AD7"/>
<stop offset="0.2435" stop-color="#7EB1DD"/>
<stop offset="1" stop-color="#7EBAE4"/>
</linearGradient>
<linearGradient id="paint1_linear_4_1027" x1="71.9893" y1="44.8833" x2="28.5875" y2="120.046" gradientUnits="userSpaceOnUse">
<stop stop-color="#699AD7"/>
<stop offset="0.2435" stop-color="#7EB1DD"/>
<stop offset="1" stop-color="#7EBAE4"/>
</linearGradient>
<linearGradient id="paint2_linear_4_1027" x1="94.053" y1="179.955" x2="180.74" y2="179.902" gradientUnits="userSpaceOnUse">
<stop stop-color="#699AD7"/>
<stop offset="0.2435" stop-color="#7EB1DD"/>
<stop offset="1" stop-color="#7EBAE4"/>
</linearGradient>
<linearGradient id="paint3_linear_4_1027" x1="44.8298" y1="118.173" x2="87.5572" y2="193.575" gradientUnits="userSpaceOnUse">
<stop stop-color="#415E9A"/>
<stop offset="0.2317" stop-color="#4A6BAF"/>
<stop offset="1" stop-color="#5277C3"/>
</linearGradient>
<linearGradient id="paint4_linear_4_1027" x1="149.965" y1="32.73" x2="63.4109" y2="31.9721" gradientUnits="userSpaceOnUse">
<stop stop-color="#415E9A"/>
<stop offset="0.2317" stop-color="#4A6BAF"/>
<stop offset="1" stop-color="#5277C3"/>
</linearGradient>
<linearGradient id="paint5_linear_4_1027" x1="92.8406" y1="94.5553" x2="243.597" y2="94.5553" gradientUnits="userSpaceOnUse">
<stop stop-color="#415E9A"/>
<stop offset="0.2317" stop-color="#4A6BAF"/>
<stop offset="1" stop-color="#5277C3"/>
</linearGradient>
<linearGradient id="paint6_linear_4_1027" x1="107.962" y1="107.303" x2="153.113" y2="29.3417" gradientUnits="userSpaceOnUse">
<stop stop-color="#699AD7"/>
<stop offset="0.2435" stop-color="#7EB1DD"/>
<stop offset="0.9997" stop-color="#7EBAE4"/>
</linearGradient>
<linearGradient id="paint7_linear_4_1027" x1="150.515" y1="77.7539" x2="160.132" y2="77.7539" gradientUnits="userSpaceOnUse">
<stop stop-color="#415E9A"/>
<stop offset="0.2317" stop-color="#4A6BAF"/>
<stop offset="1" stop-color="#5277C3"/>
</linearGradient>
<linearGradient id="paint8_linear_4_1027" x1="105.365" y1="74.9442" x2="110.899" y2="74.9442" gradientUnits="userSpaceOnUse">
<stop stop-color="#415E9A"/>
<stop offset="0.2317" stop-color="#4A6BAF"/>
<stop offset="1" stop-color="#5277C3"/>
</linearGradient>
<linearGradient id="paint9_linear_4_1027" x1="127.234" y1="74.7319" x2="132.592" y2="74.7319" gradientUnits="userSpaceOnUse">
<stop stop-color="#415E9A"/>
<stop offset="0.2317" stop-color="#4A6BAF"/>
<stop offset="1" stop-color="#5277C3"/>
</linearGradient>
<clipPath id="clip0_4_1027">
<rect width="244" height="212" fill="white"/>
</clipPath>
</defs>
</svg>
