<svg viewBox="0 0 105.8 71.4" xmlns="http://www.w3.org/2000/svg"><defs><clipPath clipPathUnits="userSpaceOnUse" id="a"><path d="M0 0h5561.8v3647H0Z"/></clipPath><clipPath clipPathUnits="userSpaceOnUse" id="b"><path d="M0 0h5561.8v3647H0Z"/></clipPath><clipPath clipPathUnits="userSpaceOnUse" id="c"><path d="M0 0h5561.8v3647H0Z"/></clipPath><clipPath clipPathUnits="userSpaceOnUse" id="d"><path d="M0 0h5561.8v3647H0Z"/></clipPath><clipPath clipPathUnits="userSpaceOnUse" id="e"><path d="M0 0h5561.8v3647H0Z"/></clipPath><clipPath clipPathUnits="userSpaceOnUse" id="f"><path d="M0 0h5561.8v3647H0Z"/></clipPath><clipPath clipPathUnits="userSpaceOnUse" id="g"><path d="M0 0h5561.8v3647H0Z"/></clipPath><clipPath clipPathUnits="userSpaceOnUse" id="h"><path d="M0 0h5561.8v3647H0Z"/></clipPath><clipPath clipPathUnits="userSpaceOnUse" id="i"><path d="M0 0h5561.8v3647H0Z"/></clipPath><clipPath clipPathUnits="userSpaceOnUse" id="j"><path d="M0 0h5561.8v3647H0Z"/></clipPath><clipPath clipPathUnits="userSpaceOnUse" id="k"><path d="M0 0h5561.8v3647H0Z"/></clipPath><clipPath clipPathUnits="userSpaceOnUse" id="l"><path d="M0 0h5561.8v3647H0Z"/></clipPath><clipPath clipPathUnits="userSpaceOnUse" id="m"><path d="M0 0h5561.8v3647H0Z"/></clipPath><clipPath clipPathUnits="userSpaceOnUse" id="n"><path d="M0 0h5561.8v3647H0Z"/></clipPath><clipPath clipPathUnits="userSpaceOnUse" id="o"><path d="M0 0h5561.8v3647H0Z"/></clipPath><clipPath clipPathUnits="userSpaceOnUse" id="p"><path d="M0 0h5561.8v3647H0Z"/></clipPath><clipPath clipPathUnits="userSpaceOnUse" id="q"><path d="M0 0h5561.8v3647H0Z"/></clipPath><clipPath clipPathUnits="userSpaceOnUse" id="r"><path d="M0 0h5561.8v3647H0Z"/></clipPath><clipPath clipPathUnits="userSpaceOnUse" id="s"><path d="M0 0h5561.8v3647H0Z"/></clipPath><clipPath clipPathUnits="userSpaceOnUse" id="t"><path d="M0 0h5561.8v3647H0Z"/></clipPath><clipPath clipPathUnits="userSpaceOnUse" id="u"><path d="M0 0h5561.8v3647H0Z"/></clipPath><clipPath clipPathUnits="userSpaceOnUse" id="v"><path d="M0 0h5561.8v3647H0Z"/></clipPath><clipPath clipPathUnits="userSpaceOnUse" id="w"><path d="M0 0h5561.8v3647H0Z"/></clipPath><clipPath clipPathUnits="userSpaceOnUse" id="x"><path d="M0 0h5561.8v3647H0Z"/></clipPath><clipPath clipPathUnits="userSpaceOnUse" id="y"><path d="M0 0h5561.8v3647H0Z"/></clipPath><clipPath clipPathUnits="userSpaceOnUse" id="z"><path d="M0 0h5561.8v3647H0Z"/></clipPath><clipPath clipPathUnits="userSpaceOnUse" id="A"><path d="M0 0h5561.8v3647H0Z"/></clipPath><clipPath clipPathUnits="userSpaceOnUse" id="B"><path d="M0 0h5561.8v3647H0Z"/></clipPath><clipPath clipPathUnits="userSpaceOnUse" id="C"><path d="M0 0h5561.8v3647H0Z"/></clipPath></defs><path d="m2085.8 2186.8-8.6 36.5h-16.5v10h-9.6v31.8h-15.2v801.5h-11.5v511.7h2v68.7h-23.8v-68.7h2v-511.7H1993v-801.5h-15.2v-31.9h-9.5v-9.9h-16.5l-8.6-36.5h-2V2175h6.8l31.6-25.5h-6V2135h11.2v-232.3h-11.3v-230.4h81.9v230.4h-11.2V2135h11.2v14.5h-6.1l31.6 25.5h6.8v12h-2" transform="matrix(.03528 0 0 -.03528 -3.7 130)" clip-path="url(#a)" fill="#739dd8"/><path d="M2012.1 1891.6h85v176.3h119.5V2610h69.2v-20.6h81.8v20.6h69.2v-438.4h81.8v-497.3H2454v-4.3h-17.3v-1h-220.2v1H2012v221.5" transform="matrix(.03528 0 0 -.03528 -3.7 130)" clip-path="url(#b)" fill="#4d6dbe"/><path d="M1150 3345.6h27.7v87.7h39.6v2h-2.4v2h2.4v5.9h-2.4v2.1h2.4v5.9h-2.4v2.1h2.4v6h-2.4v2h2.4v5.9h-2.4v2h2.4v6h-2.4v2h2.4v6h-2.4v2h2.4v16.8h-2.4v2h2.4v4h15.7v-4h1.5v-2h-1.5v-16.8h1.5v-2h-1.5v-6h1.5v-2h-1.5v-6h1.5v-2h-1.5v-5.9h1.5v-2h-1.5v-6h1.5v-2.1h-1.5v-5.9h1.5v-2.1h-1.5v-5.9h1.5v-2h-1.5v-2h121.2V3398v10.1-31.2 42-13.5h15.7v13.6-42 31.1-10 35h118.2v.8h-4v2h4v-15.5h-4v2h4v6h-4v2h4v6h-4v2h4V3423h-4v2.1h4v5.9h-4v2h4v6h-4v2.1h4v62.6h-2.2v2h2.2v4h15.7v-4h3.4v-2h-3.4V3441h3.4v-2.1h-3.4v-6h3.4v-2h-3.4v-5.9h3.4v-2h-3.4v15.6h3.4v-2.2h-3.4v-5.8h3.4v-2.2h-3.4v-5.8h3.4v-2.1h-3.4v15.6h3.4v-2.1h-3.4v-.7h42.5v-87.7h50.2V1669.5h-480v1676.1h33.5" transform="matrix(.03528 0 0 -.03528 -3.7 130)" clip-path="url(#c)" fill="#739dd8"/><path d="M973.6 3289.9h63.4v-17h-63.4zm217.5 14.8v-3h-2.4a18 18 0 0 1 2.4 3zM1344.8 1811v1346.2h6.2v11.8h-30v52.2h.5v11.8h8.7v11.9h-51.7v28h-29.8v17h5v11.8h-29l.3 1a5.1 5.1 0 0 1-10.3 0l.1-.7v-.3h-11.4v37.4h-3v35h-2v64.8h-2.4v-64.8h-2v-35h-3v-15a17 17 0 0 1-2.7 3.2l-.5.4c-.8.7-1.7 1.4-2.7 2l-1 .5-2.8 1.2-1.2.3c-1.3.3-2.7.6-4.1.6a17.7 17.7 0 0 1-7-1.4 18 18 0 0 1-9.6-23.2l-1.6-.6-1.3-1-.3-.6-.6-1-.3-1.7.1-1h-43.1l.2 1a8.2 8.2 0 1 1-16.4 0l.2-1h-6v16.3h-3.2v15.4h-1.9v28.4h-2.4v-28.4h-1.9V3318h-3.1v-16.4h-8v16.4h-3.2v15.4h-2v28.4h-2.3v-28.4h-2V3318h-3v-5.2a8.2 8.2 0 0 1-8.2-8.2c0-1 .2-2 .6-3h-73.3l.8 1.4.3 1.6c0 2.9-2.3 5.2-5.1 5.2l-.5-.2h-.2v52.2h-6.3v56.3h-3.8v104.3h-4.8v-104.3H953v-56.3h-6.2v-31.5a18 18 0 0 1-3.6 1.3h-.2c-1.3.4-2.6.6-4 .6a17.9 17.9 0 0 1-12.7-30.5h-38v-11.9h6.4v-17h-19v-28H824V3233h8.7v-64h-29.2v-11.8h5.6V1811h-41v-140h826.3v140h-249.7" transform="matrix(.03528 0 0 -.03528 -3.7 130)" clip-path="url(#d)" fill="#4d6dbe"/><path d="M2022.1 2046.7v16.8h-10.5l-37.2 148h-12.2v37.1h1.2v2.2h1.1v1.8h1.7v1.8h1v6h-.1v10h1v2.4h1.5v2.5h-.6l-4.1 3.7a19.8 19.8 0 0 0-6.6 18.2h-3 1.9v2h.7v5h.8v5h-1.6l-.1 1.3-.2 1-.6 2.6-.1.6c-.4 1.1-.7 2.1-1.2 3.1l-.3.7-1.3 2.3-.4.7a29 29 0 0 1-1.9 2.6l-.3.3-2 2-.6.7-2.2 1.8-.4.2c-.8.6-1.8 1.1-2.7 1.6l-.3.2c-4.3 2.2-7 6.6-7.6 11.4l-4.3 40.8-4.3-40.8c-.5-4.8-3.3-9.2-7.6-11.4h-.2l-3.3-2-.4-.3a21 21 0 0 1-2.8-2.4l-.1-.1c-1-.9-1.7-1.8-2.5-2.8l-.4-.6c-.8-1-1.4-2-2-3.1l-.2-.4-1.4-3.2-.2-.6-.9-3.6-.1-.8-.2-1.9h-1.5v-5h.8v-4.9h.6v-2h1.9-3a19.8 19.8 0 0 0-6.6-18.2l-4.2-3.7h-.5v-2.5h1.4v-2.5h1v-14.7h.2v-1.2h1v-1.8h1.6v-1.8h1.1v-2.2h1.2v-37.2h-20.5v11.6H1751v175h4.4v8h4v6.6h5.9v6.3h3.7v22h-.3v36h3.9v9h5.3v9.1h-2.1l-15.2 13.3a72 72 0 0 0-23.7 66h-11.1v.2h7v7.3h2.6v18h3v18h-6a96.8 96.8 0 0 1-86.5 88.8v8.9H1626v-8.9a96.8 96.8 0 0 1-86.5-88.8h-5.3v-18h3v-18h2v-7.3h6.8l.1-.1H1535a72 72 0 0 0-23.7-66.1L1496 2495h-2v-9h5.2v-9.1h3.9v-53.3h.3v-4.7h3.7v-6.3h6v-6.5h4v-8.1h4.3v-115h-81.2v304.4H1225V2223h-96v-11.6h-52.8v37.2h1.2v2.2h1.1v1.8h1.7v1.8h1v6h-.1v10h1v2.4h1.5v2.5h-.6l-4.1 3.7a19.8 19.8 0 0 0-6.6 18.2h-3 1.9v2h.7v5h.8v5h-1.7a26.6 26.6 0 0 1-14.5 21.7c-4.3 2.2-7 6.6-7.6 11.4l-4.3 40.8-4.3-40.8c-.5-4.8-3.3-9.2-7.6-11.4a26.6 26.6 0 0 1-14.7-21.8h-1.5v-5h.8v-4.9h.6v-2h2-3.2a19.8 19.8 0 0 0-6.5-18.2l-4.2-3.7h-.5v-2.5h1.4v-2.5h1v-14.7h.2v-1.2h1v-1.8h1.6v-1.8h1.1v-2.2h1.2v-37.2h-12.7l-37.3-148h-10.5v-16.7h5.3v-98.6h-5.3v-16.8h5.3v-98.6h-5.3v-16.8h5.3v-98.6h-5.3v-16.8h5.3v-19.8h1059v19.8h5.2v16.8h-5.2v98.6h5.2v16.8h-5.2v98.6h5.2v16.8h-5.2v98.6h5.2" transform="matrix(.03528 0 0 -.03528 -3.7 130)" clip-path="url(#e)" fill="#4562b7"/><path d="M343.2 2757.7h18.4v58.4h26.2v1.3H385v1.4h2.7v4H385v1.4h2.7v3.9H385v1.4h2.7v4H385v1.3h2.7v4H385v1.3h2.7v4H385v1.4h2.7v3.9H385v1.4h2.7v3.9H385v1.4h2.7v2.6h10.4v-2.6h2.2v-1.4h-2.2v-4h2.2v-1.3h-2.2v-4h2.2v-1.4h-2.2v-3.9h2.2v-1.4h-2.2v-3.9h2.2v-1.4h-2.2v-3.9h2.2v-1.4h-2.2v-4h2.2v-1.4h-2.2v-3.9h2.2v-1.4h-2.2v-1.3h80.3v55.6h10.3v-55.6H567v.5h-2.7v1.4h2.7v-10.4h-2.7v1.4h2.7v4h-2.7v1.3h2.7v4h-2.7v1.4h2.7v-10.5h-2.7v1.4h2.7v4h-2.7v1.3h2.7v4h-2.7v1.4h2.7v17h-2.7v1.4h2.7v2.5h10.4v-2.5h2.2v-1.4h-2.2v-17h2.2v-1.4h-2.2v-4h2.2v-1.4h-2.2v-3.9h2.2v-1.4h-2.2v10.5h2.2v-1.5h-2.2v-3.9h2.2v-1.4h-2.2v-3.9h2.2v-1.4h-2.2v10.4h2.2v-1.4h-2.2v-.5h28.2v-58.4h33.2V1685H303v1072.8h40.2" transform="matrix(.03528 0 0 -.03528 -3.7 130)" clip-path="url(#f)" fill="#739dd8"/><path d="M688.2 2285.4v4.2h-.2v.1h-1.4v1.7h.4v59.3h-.4v1.2h1.6v2.2h5.9v-2.2h1.4v-1.3h-.3v-59.3h.3v-1.7h-1.4v-4.2zm-15 0v4.4h-2v1.7h.7v59.4h-.5v1.1h2v2.1h4.1v-2.2h1.8v-1.3h-.5v-59.3h.5v-1.7h-1.7v-4.2zm-17.7 0v4.3h-2.2v1.8h.5v59.3h-.5v1.2h2.2v2.1h3.7v-2h2.3v-1.4h-.6v-59.3h.6v-1.7h-2.2v-4.3zm-20.3 0v4.3h-1.7v1.8h.4v59.3h-.4v1.2h1.7v2.1h6.3v-2h2.2v-1.4h-.6v-59.3h.6v-1.7h-2.2v-4.3zm-16.6 0v4.3H617v1.8h.4v59.3h-.4v1.2h1.4v2.1h6v-2h1.6v-1.4h-.4v-59.3h.4v-1.7h-1.7v-4.3zm113.8-518.2v5.3h-4.6v5h-1.7l-.4 11.7v118h2.1v10h1.9v9.5h-4.5v5.2h-4.4v23.7h2.1v14.2h4.5v9.5h-9v194h2.3v7.8h-2.3v10h2.3v7.7h-9.6v6h-2v59.2h2v7.7h-4.4v6.7h.5v2.9H704v4h-.8v4.3h-1.5v1.7h.4v59.4h-.4v1.1h1.4v2.2h.1v2.3h1.3v5h2.2v8.9h-8l-.3 1a56 56 0 0 1-1.2 5.1l-.1.3v.3l-.6 1.5c-.5 1.6-1 3.1-1.7 4.7l-.2.7-1 2-1 1.9a59.7 59.7 0 0 1-4.7 7.3l-1.3 1.9-1.5 1.4-1.4 1.7-1.9 1.7-2.5 2.1-4 2.8-2.8 1.6-.7.4v5.2h-2.7v3.4h-3.3l-7.4 53h-.9v1.5l2 1.4.5 1v.2l.2 1v.4l-.1.5v.3l-.1.2-.2.3-.6 1.2-.7.5-1 .7v1l.6.1.5.2.5.2.5.3.4.3.5.3.3.4.4.5.3.4.3.5.2.5.2.7.1.4.2 1v.4l-.1.3v.6l-.2.4-.2.7-.2.4-.3.5-.2.3-.5.9-1 .6-.2.2-.5.2-.3.2-1.3.7v17.2h-.5v4.9h3.6v1.6H657v2h-1.2v-2h-3.6v-1.6h3.5v-5h-.5v-4.3H641l.4-.4h-.4l3.7-2.8-3.7-2.8h.4l-.4-.3h14.2v-6.5l-1-.6-.6-.3-.5-.2-.2-.2-1-.6-.4-.8-.3-.4-.3-.5-.2-.4-.2-.7-.1-.4-.1-.8v-1.6l.2-.3.2-.7.2-.5.3-.5.3-.4.4-.5.3-.4.5-.3.4-.3.5-.3.5-.2.5-.2.6-.2v-1l-1-.6-.6-.5-.6-1-.3-.5v-.2l-.1-.6v-.2l-.1-.3.2-1.1v-.2l.6-1 2-1.4v-1.5h-1l-7.3-53h-3.3v-3.4H641v-5.2l-.7-.4-3.1-1.9c-1.4-.8-2.7-1.6-3.9-2.6l-2.8-2.5-3.3-3.3-1-1-1.3-2a51.3 51.3 0 0 1-4.6-7l-1.2-2-.9-2-.2-.8-1.2-3v-.1c-.4-1-.8-2.1-1-3.1l-.2-.3-.4-1.6-.6-2.7-.4-1.6-.1-.5h-8v-8.9h2v-5h1.4v-4.2h1.4v-1.4h-.3v-59.3h.3v-1.7h-1.4v-4.3h-.7v-4h-3.2v-2.9h.4v-6.7h-4.4v-7.7h2v-59.4h-2v-5.9H592v-7.7h2.3v-10H592v-7.8h2.3v-194h-8.9v-9.5h4.4v-14.1h2.2V1932h-4.4v-5.2H583v-9.5h2.2V1907h1.8v-29.8l-7 8v.9h2v8.4h-10l-22.2 26v11.1h-81.6l-13.3 19.8v10.8h-41l-47 11h-36.4l-47-11h-41v-10.8h-.1l-13.3-19.8h-38.3v-10.9l-22.6-26.2h-10v-.3h-.1v-8.1h2v-.1h-.1v-1l-18.6-21.6h-28.3v-8.5h3v-8.1h.1v-159.5h-5.1v-12.1h78.4-35.2 426.4v-.7h151.7v5.3h-2.5v65.6h2.5v5.3H730v16.4h2.3" transform="matrix(.03528 0 0 -.03528 -3.7 130)" clip-path="url(#g)" fill="#4d6dbe"/><path d="M1270.6 1946.1H930.3v29.6h.3v6.7h-.3v29h.3v6.7h-.3v29h.3v6.7h-.3v25.8h.3v6.7h-.3v29h.3v6.7h-.3v29h.3v6.7h-.3v29h.3v6.7h-.3v29.6h.3v6.8h-.3v29h.3v6.7h-.3v29h.3v6.7h-.3v25.7h.3v6.7h-.3v29h.3v6.8h-.3v29h.3v6.7h-.3v29h.3v6.7h-.3v26.5h.3v6.7h-.3v29h.3v6.7h-.3v29h.3v6.7h-.3v28.2h.3v6.7h-.3v28.2h.3v6.7H682.8v-349.6h-93.1v176H342.5v-713.3h.7v-67.6h927.4v67.6h.9v217.8h-.9" transform="matrix(.03528 0 0 -.03528 -3.7 130)" clip-path="url(#h)" fill="#4255ae"/><path d="M1919.4 1915v14.6h3.5v8.4h-3.5v138.9h3.5v8.4h-3.5v157h3.5v8.4h-3.5V2483h14.1v5.2h-4.7l-6.7 88.2-5 68.4h.7v5.2h-3.8v19.1l.9 1.3v.1l.5 2-.6 2.2-1.3 1.6.4 1.2.1.4-.4 1.3-.1.4v.2l1.3 1.6.2.4c.4.8.6 1.7.6 2.7 0 3-3.8 5.5-3.8 5.5s-1-.6-1.9-1.6c-1-1-2-2.4-2-4l.2-.6.4-1.7.4-1 .8-1 .4-.5-.5-1.7.4-1.6-.1-.2-1-1.1-.3-.6-.3-1.4v-.5l.2-1.6v-.1l.6-1 .3-.5.2-.3v-19H1892l-.6 7.3h1.2v5.2h-1.6l-5.8 78.7h1v5.2h-1.3l-18.3 247.5h.5v5.2h-.9l-11.4 155.1h1.8v5.2h.2v5.2h-2.8l-5.2 70.8h1.2v5.3l2.3 1.7.2.4a5 5 0 0 1 1 2.8l-.3 1.3v.3l-.7 1.2-.2.3-1 1h-.3l-1.3.7v10.6l1 .4 1.2.4 1.2.8 1 .8.8 1 .8 1.3.1.8.4 2c0 1.8-.7 3.4-1.8 4.7l-.1.2-1.8 1.4-.3.2-2 .7-.5.1v40.5l6-4.4-.1.1-3.1 9.8h8.3l-4.1 3 4 3h.1-8.3l3.2 9.9-6.8-5-1.6 5v-.1l-1.6-4.8-6.7 4.9v-.1l3.1-9.7h-8.3l4.2-3.1-4.2-3h8.3l-3.2-9.9 6.2 4.5v-40.6l-.6-.2-1.7-.5-1-.6-1.1-1-1-1.5-.5-.7a7.3 7.3 0 0 1 1.6-8l.4-.4 1.8-1.2.9-.3 1.2-.4v-10.6h-.1l-1-.5-.7-.5-.6-.5-.7-1-.2-.5-.4-1.9v-.4l.8-2.1.5-.7 2-1.5v-5.6h1.3l-5.2-70.8h-2.4V3154h1.6l-11.4-155h-.4v-5.4l-18.2-247.4h-1v-5.2h.6l-5.8-78.7h-1.1v-5.2h.7l-.5-7.3h-17.5v19.1l.8 1.3.1.1.4 2-.5 2.2-1.3 1.6.3 1.2.2.4-.5 1.3v.7l1.3 1.6.2.4c.3.8.6 1.7.6 2.7 0 3-3.8 5.5-3.8 5.5s-1-.6-2-1.6c-.9-1-1.8-2.4-1.8-4v-.6l.4-1.7.5-1 .8-1 .4-.5-.6-1.7.5-1.6-.2-.2-.9-1.1-.3-.6-.3-1.4-.1-.5.3-1.6v-.1l.6-1 .3-.5.1-.3v-19h-3.6v-5.2h1l-.3-4v-1.1l-11.2-151.5h-2v-5.2h10.2v-232.1h-3.5v-8.5h3.5v-23.6l-166.4.3-.1.1-.2-.1h-.4l-.1.1h-.1v-.1l-120 .1-174.8-182.4V2026h-5v-9.9h5V2004h4.6v-12.3h.1V1938h-3.7v-8.4h3.7v-124h-2v-.1h-.1l-11-142.1h638.3v206.7l-23.3 45" transform="matrix(.03528 0 0 -.03528 -3.7 130)" clip-path="url(#i)" fill="#4255ae"/><path d="m1253.2 1954.3-1 2.2c-5.4 1.5-8.2 9.3-8.2 9.3v5c0 2.6 0 5.8-.6 7.5-1 3.4-5.3 6.4-6.9 8.5-1.5 2-3.2 12.5-4.4 19v.3l-.3 2.1-.1 1-.3 3.4-.1 1.5-.3 3.7-.1 1.9-.3 4.3v.7l.6.5.3.3.8 1.9v.1l-.8 1.7-.7.6-.5.3-.1 1.3v3.7l.2.1 1 .4.4.3.8.6.5.8.3.5.3 1.6v.3l-.3 1.2-.7 1.1v.1a4 4 0 0 1-2.5 1.5v30.5h-.3v7.8l.2.3.7 1v.1l-1.5 1.6-1.5-1.5.5-1v-.1l.5-.4v-7.7h-.3v-30.6a4 4 0 0 1-2.5-1.5l-.7-1.2-.3-1.1v-.4l.3-1.6.3-.5.5-.8.7-.6.4-.3 1-.4h.3v-3.8l-.1-1.3-.5-.3-.8-.6-.7-1.6v-.2l.8-2 .3-.2.6-.5v-1c-.2-1.4-.2-2.9-.3-4.3l-.1-1.4-.3-3.9-.1-1.5-.3-3.4-.1-1-.3-2.1v-.3c-1.2-6.5-3-17-4.5-19s-5.8-5.1-6.8-8.5c-.6-1.7-.7-4.9-.7-7.5v-5l-.3-1-.4-.7-.2-.5a21 21 0 0 0-2.6-3.9l-.2-.1-62.7 101h-3.3v2.4l-.2.6c-1.4.4-2 2.2-2 2.2v1.2l-.2 1.8-1.6 2c-.4.6-.8 9.6-1 11.1l-.1.2-.2 1.4v.5l-.1 2.3v.2l.3.6v.2l-.4.4v1.4l.8.9-.9 1v9.3l.2.3-.4.4-.3-.4.2-.3v-9.3l-1-1h.1l.8-1v-1.3l-.3-.4-.2-.2.4-.6v-.4l-.1-2v-.7l-.2-1.3v-.2c-.3-1.5-.7-10.5-1.1-11l-1.7-2-.1-1.9v-1.2s-.7-1.8-2-2.2l-.2-.6v-2.4h-123.6v28.2h2.8v7.6h-2.8v.1h-4.8v8.8h1.6v4.6h-3.5a5.6 5.6 0 1 1-9.5 4c0-1.6.6-3 1.7-4h-3.5v-4.6h1.5v-8.7h-14.4v36.2h2.7v7.6H979v.8c0 1.2 0 2.3-.2 3.4l-.4 2-.3 1.5-.9 2.3-.3.9-1.3 2.4-.1.3a13.2 13.2 0 0 1-8.6 6.5l-.4 1.9-.1.8c-.3 1.2-.8 2.3-1.3 3.2l-.5 1-1.8 2h1.3v3.4h-1.4v3.1h-.7l-.3 1-.2 1.7a20 20 0 0 1-1.7 7.7l-.3.7-1 .8-.3.4v.8l-.2 1.2-.2 1.1-.2 1-.3.7-.4.9-.7.5v1h.3v4.7h-1v11.3h-.3v3.5H988v23.5h-33v.8l.8 1v.1l-1.2 1.2-1.2-1.2.8-1v-27.9h-.1V2200H953v-4.6h.2v-1.1l-1.1-1.4-.3-.6-.2-1.2-.2-1-.1-1.4-.1-.8-.4-.4-.6-.7-.6-1.3-.5-1.2-.6-3-.2-2.2-.2-1.8-.4-1.2v-.2h-.6v-3h-1.5v-3.4h1.4l-1.8-2.1-.6-1-1.2-3-.2-1.1-.3-2c-1.6-.5-3-1.4-4.3-2.6a17.3 17.3 0 0 1-3.3-4.2l-.3-.5c-.9-1.6-1.6-3.3-2.1-5.2l-.2-.8c-.4-2-.7-4-.7-6.2v-.3h-2.8v-7.7h2.8v-36.2h-14.4v8.7h1.6v4.6h-3.5a5.6 5.6 0 1 1-9.5 4c0-1.6.6-3 1.6-4h-3.5v-4.6h1.6v-8.7h-4.8v-.1h-2.9v-7.7h2.9v-28.2h-124v2.4l-.3.6c-1.3.3-2 2.2-2 2.2v1.2l-.1 1.8-1.7 2c-.4.6-.8 9.6-1 11.1v.2l-.2 1.3v.6l-.2 2.2v.3l.4.6-.2.2-.3.4v1.4l.8.9-.8 1v7.4h-.1v1.9l.2.3-.3.4-.4-.4.2-.3v-9.3l-.9-1 .8-1v-1.3l-.3-.4-.2-.2.5-.6v-.2l-.2-2.2v-.7l-.2-1.3v-.2c-.3-1.5-.7-10.5-1-11l-1.7-2-.2-1.9v-1.2s-.6-1.9-2-2.2l-.2-.6v-2.4h-.7l-62-99.7-.1.3-.8 1.2-.3.5-.5 1-.3.6-.1.3-.5 1 .1 5c0 2.6-.1 5.8-.7 7.5-1 3.4-5.3 6.4-6.8 8.5a88 88 0 0 0-4.4 19v.3l-.4 2.1v1l-.4 3.5v1.3l-.4 4.3v.7l-.3 5v.7l.5.5.3.3.8 1.9v.1l-.7 1.7-.8.6-.5.3v5l.1.1 1 .4.5.3.7.6.5.8.3.5.4 1.6-.1.3-.3 1.2-.6 1.1v.1c-.7.8-1.6 1.3-2.6 1.5v30.5h-.2v7.8l.1.3.7 1v.1l-1.4 1.6-1.5-1.5v-.1l.7-1.1.2-.3v-7.7h-.3v-30.6a4 4 0 0 1-2.5-1.5l-.7-1.2-.2-1.2-.1-.3.3-1.6.3-.5.5-.8.8-.6.4-.3 1-.4h.2v-5.1l-.6-.3-.7-.6-.7-1.7v-.1l.7-2 .4-.2.5-.5v-.8l-.3-4.9v-.7l-.4-4.3v-1.3a150 150 0 0 0-.4-3.5l-.1-1-.3-2.1v-.3c-1.2-6.5-3-17-4.4-19-1.5-2-5.9-5.1-6.9-8.5-.5-1.7-.7-4.9-.7-7.6l.1-4.9s-2.8-7.8-8.2-9.3l-1-2.2h-1v-2.2h1v-152.5H660v-7.5h7v-.1c0-1.9.3-3.6.8-5.2l.3-1c.6-1.6 1.4-3 2.4-4.4l.4-.6c2.3-2.7 5.3-4.8 8.8-5.9h.2l-.2-1.3c0-3 2.3-5.3 5.2-5.3l2 .4.8.5.5.4v-75h-3.7v-8.7h300.1v-1.3h8.5v1.3h64.9v-3.3h8.5v3.3h160.1v8.6h-3.8v80.5l.7-.2-.3-1.2a5.2 5.2 0 0 1 10.5 0l-.3 1.2.3.1c3.5 1 6.5 3.2 8.7 6l.5.5a17 17 0 0 1 2.4 4.4l.3 1c.5 1.6.8 3.3.9 5.2h7.3v7.6h-2V1952h2.3v2.3h-.9" transform="matrix(.03528 0 0 -.03528 -3.7 130)" clip-path="url(#j)" fill="#3646a3"/><path d="m2980.2 1935.5-30.7 46.8-150.3 68.8h-483.7v31.7h2.5v6.2h5v6.2h-7.5v182h4.9v6.1h5v6.2h-10.1v169.4h5v6.2h5.2v6.1h-2.4v12.4h-9.5l-22.6 26.6c-4.3 5-8.3 10.2-12.2 15.5l-25 65h-6.2l-1.8-10.3c-6.2 13-11.5 26.4-15.9 40.2l-.1.4c-2 6.2-3.7 12.5-5.4 18.9l-.6 2.2c-1.7 7-3.2 14.1-4.4 21.3l-26 148.6-1.6 13h-.6l-.5 62.7c1.2 0 2.2.5 3 1.2l.1.2.8 1.2.3 1.6-.3 1.7a4.3 4.3 0 0 1-4 2.6v12.1c2 .3 3.9 1.2 5.2 2.7l.5.6 1.1 1.9a8.2 8.2 0 0 1 0 6.2l-1 1.8-.5.7a8.3 8.3 0 0 1-5.2 2.7v6.9h9.8v7h-12.1V2925c-2-.3-3.9-1.2-5.2-2.7l-.4-.7-1.1-1.8a8 8 0 0 1 0-6.2l1.1-1.8.4-.7a8.4 8.4 0 0 1 5.3-2.7v-2.8l-.1-9.3c-1.2 0-2.2-.5-3-1.3v-.1l-.9-1.2-.3-1.6.3-1.7.8-1.2.1-.1a4 4 0 0 1 3-1.3l-.5-62.8h-.8l-1.5-12.9-25.9-148.6a329.8 329.8 0 0 0-8.1-34.5l-1.2-4.1a343.1 343.1 0 0 0-13.6-36.4l-.9 2.3h-6.2l-4.2-24c-.1-1-.4-2-.7-3-.8-1.6-1.8-3.1-2.7-4.7l-7-11.9-4-6c-2.4-3.6-4.8-7.2-7.4-10.7l-3.7-5.2c-3.8-5-7.8-10.1-12-15l-22.5-26.6h-9.5v-12.4h-2.4v-6.1h5.1v-6.2h5.1v-169.4h-10.2v-6.2h5.1v-6.2h5v-182h-7.6v-6.1h5v-6.2h2.5v-182h-7.5v-6.1h5v-6.2h2.5v-209.4h921.6v241.5h9.3v14.9H2980" transform="matrix(.03528 0 0 -.03528 -3.7 130)" clip-path="url(#k)" fill="#3646a3"/><path d="M2111.5 1681.4a216.1 216.1 0 0 1-216 205.7 216 216 0 0 1-216-205.7h432" transform="matrix(.03528 0 0 -.03528 -3.7 130)" clip-path="url(#l)" fill="#4562b7"/><path d="M537.5 1683.4a216.2 216.2 0 0 1-432.1 0h432" transform="matrix(.03528 0 0 -.03528 -3.7 130)" clip-path="url(#m)" fill="#4562b7"/><path d="M1416.4 1675.8a146 146 0 0 1-291.7 0h291.7" transform="matrix(.03528 0 0 -.03528 -3.7 130)" clip-path="url(#n)" fill="#4255ae"/><path d="M449.8 1748.9a68.3 68.3 0 0 1-47.6-19.3 68.4 68.4 0 0 1-94.6.6 68.5 68.5 0 0 1-115.5-46.6h326.2a68.6 68.6 0 0 1-68.5 65.3" transform="matrix(.03528 0 0 -.03528 -3.7 130)" clip-path="url(#o)" fill="#4d6dbe"/><path d="M554.3 1719.3a40.8 40.8 0 0 1-28.6-11.5 40.9 40.9 0 0 1-56.8.3 41.2 41.2 0 0 1-69.4-28h196a41 41 0 0 1-41.2 39.2" transform="matrix(.03528 0 0 -.03528 -3.7 130)" clip-path="url(#p)" fill="#739dd8"/><path d="M217.7 1704.3c-5 0-9.6-2-13-5.2a18.4 18.4 0 0 1-12.8 5.2c-5 0-9.5-2-12.8-5.1a18.6 18.6 0 0 1-31.4-12.7h88.7a18.7 18.7 0 0 1-18.7 17.8" transform="matrix(.03528 0 0 -.03528 -3.7 130)" clip-path="url(#q)" fill="#739dd8"/><path d="M686.4 1704.3c-5 0-9.6-2-13-5.2a18.4 18.4 0 0 1-12.9 5.2c-5 0-9.4-2-12.8-5.1a18.6 18.6 0 0 1-31.4-12.7h88.8a18.7 18.7 0 0 1-18.7 17.8" transform="matrix(.03528 0 0 -.03528 -3.7 130)" clip-path="url(#r)" fill="#739dd8"/><path d="M1319.4 1678.5a85.9 85.9 0 0 1-171.6 0h171.6" transform="matrix(.03528 0 0 -.03528 -3.7 130)" clip-path="url(#s)" fill="#4d6dbe"/><path d="M1233.6 1678.5h85.8a86 86 0 0 1-85.8 81.7v-81.8" transform="matrix(.03528 0 0 -.03528 -3.7 130)" clip-path="url(#t)" fill="#4562b7"/><path d="M2179.6 1678.5a85.9 85.9 0 0 1-171.6 0h171.6" transform="matrix(.03528 0 0 -.03528 -3.7 130)" clip-path="url(#u)" fill="#739dd8"/><path d="M2093.8 1678.5h85.8a86 86 0 0 1-85.8 81.7v-81.8" transform="matrix(.03528 0 0 -.03528 -3.7 130)" clip-path="url(#v)" fill="#4562b7"/><path d="M1161 1702c-5 0-9.6-2-13-5.2a18.4 18.4 0 0 1-12.8 5.2c-5 0-9.5-1.9-12.8-5a18.6 18.6 0 0 1-31.4-12.7h88.7a18.6 18.6 0 0 1-18.6 17.7" transform="matrix(.03528 0 0 -.03528 -3.7 130)" clip-path="url(#w)" fill="#739dd8"/><path d="M1426.6 1719.3a40.8 40.8 0 0 1-28.6-11.5 40.9 40.9 0 0 1-56.8.3 41.2 41.2 0 0 1-69.4-28h195.9a41 41 0 0 1-41.1 39.2" transform="matrix(.03528 0 0 -.03528 -3.7 130)" clip-path="url(#x)" fill="#4d6dbe"/><path d="M2273.7 1719.3a40.8 40.8 0 0 1-28.5-11.5 40.9 40.9 0 0 1-56.9.3 41.2 41.2 0 0 1-69.4-28h196a41 41 0 0 1-41.2 39.2" transform="matrix(.03528 0 0 -.03528 -3.7 130)" clip-path="url(#y)" fill="#4d6dbe"/><path d="M1993 1724a39.2 39.2 0 0 1-27.4-11 39.3 39.3 0 0 1-54.3.3 39.4 39.4 0 0 1-66.3-26.8h187.3c-1 21-18.2 37.6-39.4 37.6" transform="matrix(.03528 0 0 -.03528 -3.7 130)" clip-path="url(#z)" fill="#4d6dbe"/><path d="M1859.8 1697a12 12 0 0 1-8.4-3.4 12 12 0 0 1-8.3 3.4 12 12 0 0 1-8.3-3.3 12 12 0 0 1-20.3-8.2h57.4a12 12 0 0 1-12 11.5" transform="matrix(.03528 0 0 -.03528 -3.7 130)" clip-path="url(#A)" fill="#739dd8"/><path d="M2017.3 1704.3c-5 0-9.6-2-13-5.2a18.4 18.4 0 0 1-12.8 5.2c-5 0-9.5-2-12.8-5.1a18.6 18.6 0 0 1-31.4-12.7h88.7a18.7 18.7 0 0 1-18.6 17.8" transform="matrix(.03528 0 0 -.03528 -3.7 130)" clip-path="url(#B)" fill="#739dd8"/><path d="M2337.3 1704.3c-5 0-9.6-2-13-5.2a18.4 18.4 0 0 1-12.8 5.2c-5 0-9.5-2-12.8-5.1a18.6 18.6 0 0 1-31.4-12.7h88.7a18.7 18.7 0 0 1-18.6 17.8" transform="matrix(.03528 0 0 -.03528 -3.7 130)" clip-path="url(#C)" fill="#739dd8"/></svg>