<svg viewBox="0 0 97.9 68.8" xmlns="http://www.w3.org/2000/svg"><defs><clipPath clipPathUnits="userSpaceOnUse" id="a"><path d="M0 0h5561.8v3647H0Z"/></clipPath><clipPath clipPathUnits="userSpaceOnUse" id="b"><path d="M0 0h5561.8v3647H0Z"/></clipPath><clipPath clipPathUnits="userSpaceOnUse" id="c"><path d="M0 0h5561.8v3647H0Z"/></clipPath><clipPath clipPathUnits="userSpaceOnUse" id="d"><path d="M0 0h5561.8v3647H0Z"/></clipPath><clipPath clipPathUnits="userSpaceOnUse" id="e"><path d="M0 0h5561.8v3647H0Z"/></clipPath><clipPath clipPathUnits="userSpaceOnUse" id="f"><path d="M0 0h5561.8v3647H0Z"/></clipPath><clipPath clipPathUnits="userSpaceOnUse" id="g"><path d="M0 0h5561.8v3647H0Z"/></clipPath><clipPath clipPathUnits="userSpaceOnUse" id="h"><path d="M0 0h5561.8v3647H0Z"/></clipPath><clipPath clipPathUnits="userSpaceOnUse" id="i"><path d="M0 0h5561.8v3647H0Z"/></clipPath><clipPath clipPathUnits="userSpaceOnUse" id="j"><path d="M0 0h5561.8v3647H0Z"/></clipPath><clipPath clipPathUnits="userSpaceOnUse" id="k"><path d="M0 0h5561.8v3647H0Z"/></clipPath><clipPath clipPathUnits="userSpaceOnUse" id="l"><path d="M0 0h5561.8v3647H0Z"/></clipPath><clipPath clipPathUnits="userSpaceOnUse" id="m"><path d="M0 0h5561.8v3647H0Z"/></clipPath><clipPath clipPathUnits="userSpaceOnUse" id="n"><path d="M0 0h5561.8v3647H0Z"/></clipPath><clipPath clipPathUnits="userSpaceOnUse" id="o"><path d="M0 0h5561.8v3647H0Z"/></clipPath><clipPath clipPathUnits="userSpaceOnUse" id="p"><path d="M0 0h5561.8v3647H0Z"/></clipPath><clipPath clipPathUnits="userSpaceOnUse" id="q"><path d="M0 0h5561.8v3647H0Z"/></clipPath><clipPath clipPathUnits="userSpaceOnUse" id="r"><path d="M0 0h5561.8v3647H0Z"/></clipPath><clipPath clipPathUnits="userSpaceOnUse" id="s"><path d="M0 0h5561.8v3647H0Z"/></clipPath><clipPath clipPathUnits="userSpaceOnUse" id="t"><path d="M0 0h5561.8v3647H0Z"/></clipPath><clipPath clipPathUnits="userSpaceOnUse" id="u"><path d="M0 0h5561.8v3647H0Z"/></clipPath><clipPath clipPathUnits="userSpaceOnUse" id="v"><path d="M0 0h5561.8v3647H0Z"/></clipPath><clipPath clipPathUnits="userSpaceOnUse" id="w"><path d="M0 0h5561.8v3647H0Z"/></clipPath><clipPath clipPathUnits="userSpaceOnUse" id="x"><path d="M0 0h5561.8v3647H0Z"/></clipPath><clipPath clipPathUnits="userSpaceOnUse" id="y"><path d="M0 0h5561.8v3647H0Z"/></clipPath><clipPath clipPathUnits="userSpaceOnUse" id="z"><path d="M0 0h5561.8v3647H0Z"/></clipPath><clipPath clipPathUnits="userSpaceOnUse" id="A"><path d="M0 0h5561.8v3647H0Z"/></clipPath><clipPath clipPathUnits="userSpaceOnUse" id="B"><path d="M0 0h5561.8v3647H0Z"/></clipPath><clipPath clipPathUnits="userSpaceOnUse" id="C"><path d="M0 0h5561.8v3647H0Z"/></clipPath><clipPath clipPathUnits="userSpaceOnUse" id="D"><path d="M0 0h5561.8v3647H0Z"/></clipPath><clipPath clipPathUnits="userSpaceOnUse" id="E"><path d="M0 0h5561.8v3647H0Z"/></clipPath></defs><path d="M4061.7 1659h495v1119.2h-495z" transform="matrix(.03528 0 0 -.03528 -92.6 127.3)" clip-path="url(#a)" fill="#739dd8"/><path d="M4009.7 1659h584.8v660.4h-584.8Z" transform="matrix(.03528 0 0 -.03528 -92.6 127.3)" clip-path="url(#b)" fill="#4d6dbe"/><path d="M3931.9 1679h-495v732.5h495V1679" transform="matrix(.03528 0 0 -.03528 -92.6 127.3)" clip-path="url(#c)" fill="#739dd8"/><path d="M4402.8 3577.9h-637.4v-513.4h22.5V1669h614.9v852.1h41.1v1056.8h-41.1" transform="matrix(.03528 0 0 -.03528 -92.6 127.3)" clip-path="url(#d)" fill="#4562b7"/><path d="M5206.3 2624.8v17.4h-2.2v9.9h-9.1v6.8h-76.7v18.2h-142.2V2659h-76.6v-6.8h-9.1v-10h-2.2v-17.3h2.2v-6.4h-2.2V2601h2.2v-6.4h-2.2v-17.4h2.2v-6.4h-2.2v-17.3h2.2v-6.5h-2.2v-17.3h2.2v-6.1h-2.2v-17.3h2.2v-6.5h-2.2v-17.3h2.2v-6.5h-2.2v-17.3h2.2v-6.5h-2.2V2435h2.2v-6.5h-2.2v-17.3h2.2v-6h-2.2v-17.4h2.2v-6.5h-2.2V2364h2.2v-6.5h-2.2v-17.3h2.2v-6.4h-2.2v-17.4h2.2v-6.4h-2.2v-17.4h2.2v-6h-2.2V2269h2.2v-6.4h-2.2v-17.4h2.2v-6.4h-2.2v-17.4h2.2v-6.4h-2.2v-17.4h2.2v-6.4h-2.2v-17.4h2.2v-6h-2.2v-17.4h2.2v-6.4h-2.2v-17.4h2.2v-6.4h-2.2v-17.4h2.2v-6.4h-2.2V2079h2.2v-6.4h-2.2v-17.3h2.2v-6.1h-2.2v-17.4h2.2v-6.4h-2.2V2008h2.2v-6.4h-2.2v-17.3h2.2v-6.5h-2.2v-17.3h2.2v-6.5h-2.2v-17.3h2.2v-6.1h-2.2v-17.4h2.2v-6.4h-2.2v-17.3h2.2v-6.5h-2.2v-17.3h2.2v-6.5h-2.2V1842h2.2v-6.5h-2.2v-17.3h2.2v-6h-2.2v-17.4h2.2v-6.5h-2.2V1771h2.2v-6.5h-2.2v-17.3h19v-79.5h280.2v79.5h18.9v17.3h-2.2v6.5h2.2v17.3h-2.2v6.5h2.2v17.3h-2.2v6h2.2v17.4h-2.2v6.5h2.2v17.3h-2.2v6.5h2.2v17.3h-2.2v6.5h2.2v17.3h-2.2v6.4h2.2v17.4h-2.2v6h2.2v17.4h-2.2v6.5h2.2v17.3h-2.2v6.5h2.2v17.3h-2.2v6.4h2.2v17.4h-2.2v6.4h2.2v17.4h-2.2v6h2.2v17.4h-2.2v6.4h2.2v17.4h-2.2v6.4h2.2v17.4h-2.2v6.4h2.2v17.4h-2.2v6.4h2.2v17.4h-2.2v6h2.2v17.4h-2.2v6.4h2.2v17.4h-2.2v6.4h2.2v17.4h-2.2v6.4h2.2v17.4h-2.2v6.4h2.2v17.3h-2.2v6.1h2.2v17.4h-2.2v6.4h2.2v17.4h-2.2v6.4h2.2v17.3h-2.2v6.5h2.2v17.3h-2.2v6.5h2.2v17.3h-2.2v6h2.2v17.4h-2.2v6.5h2.2v17.3h-2.2v6.5h2.2v17.3h-2.2v6.5h2.2v17.3h-2.2v6.4h2.2v17.4h-2.2v6h2.2v17.4h-2.2v6.5h2.2v17.3h-2.2v6.4h2.2v17.4h-2.2v6.4h2.2v17.4h-2.2v6.4h2.2" transform="matrix(.03528 0 0 -.03528 -92.6 127.3)" clip-path="url(#e)" fill="#739dd8"/><path d="M4735.3 1712.5h14.8V2565h37v5.8h34.9v-5.8h173.4v-34h38v-818.5h27.6v-51.2h-27.5v-2.2H4750v2.2h-14.8v51.2" transform="matrix(.03528 0 0 -.03528 -92.6 127.3)" clip-path="url(#f)" fill="#4d6dbe"/><path d="M4949.5 1864.3V2072h3v27.3h5.1V1798h-5.1v66.3zm387.7 207.6v-207.6h-3V1798h-4.2v301.2h4.2v-27.3zM5119 2413h8.2v-30.8h-8.2zm27 0h8.6v-30.8h-8.7zm-4.5 0v-30.8h-9.8v30.8zm26.8-30.8h-9.2v30.8h9.2zM5359 1798v66.3h-3V2072h3v27.3h4.5v23.5h3.5v7.5h-11.7v10.3h-5.8v66.5h2.3v7.6h-11v10.2h-11.4c-8 73.7-69.3 133.4-149 147.6v6.5h-2v3.4h-5.6v30.8h3.1v3.8h5.3v5.8h-5.3v4.9h-2.3v3.5h-13.3v17h2.5v4h2.3v8.2h-.9v1.5h-1.1c-.8 13.4-9.2 23.9-19.3 23.9-10.2 0-18.5-10.5-19.3-24h-1.2v-1.4h-.9v-8.1h2.3v-4h2.6V2431H5114v-3.5h-2.3v-4.9h-5.3v-5.8h5.3v-3.8h3v-30.8h-5.5v-3.4h-2v-6.5c-79.7-14.2-141-73.9-149-147.6h-11.4v-10.2h-11v-7.6h2.3v-66.5h-5.8v-10.3h-11.7v-7.5h3.5v-23.5h3.5v-27.3h3v-207.6h-3V1798h-11.3v-128.5h455V1798h-12.2" transform="matrix(.03528 0 0 -.03528 -92.6 127.3)" clip-path="url(#g)" fill="#4562b7"/><path d="M3014.8 2181.4v340.7h52.8v78.3h59v5.8h19.7v168.5h6v-168.5h19.7v-5.8h59V2522h52.9v-458.3h66.7v-36h87.5v-35h92.5v-39.5h75.3v-267.6h-604.7v495.8h13.5" transform="matrix(.03528 0 0 -.03528 -92.6 127.3)" clip-path="url(#h)" fill="#739dd8"/><path d="M3043.4 1740.6v-10.8h-1.5v10.8zM2850.6 2247v-11h-5.6v11.1zm9 0v-11h-5.6v11.1zm9 0v-11h-5.5v11.1zm9.1 0v-11h-5.6v11.1zm9.1 0v-11h-5.6v11.1zm9 0v-11h-5.6v11.1zm157-506.4v3.2h-11v59.7l.1 8.2h7.4v36.7h-7.4v273h4v9.2h-3l-13.3 21.7-18.4 48.7-7 18.6v12.6l.2.2c.7.4 1.3 1 1.3 2 0 1.3-1 2.4-2.3 2.4l-1.7-.8-.8-1.7c0-1 .7-1.6 1.5-2h.1V2219l-4.8-12.8v62.1h3.1v7.1h-47.7v-7.1h3.1v-97l-56.5 61.2h.7v3.5h-1.1v11.1h1v.1h.1v3.1h-60v-3.2h1.1V2236h-1.1v-3.3h.7l-56.8-61.6v97.4h3.1v7.1h-47.7v-7.1h3.1V2126l-34.2-37.2h-7.2v-7.8h5.5v-9.1h1v-278.2l-13.2-3.7v-9.5l3 .8V1727h-4.3v-53.8h356v53.5h3.4v3.2h-7v10.8h7" transform="matrix(.03528 0 0 -.03528 -92.6 127.3)" clip-path="url(#i)" fill="#4d6dbe"/><path d="M3530 2759.3h2.8v1.3h15.7V2749h-13v2.2h-5.5zm166.6 1.3v-1.3h2.7v-8.1h-5.4v-2.2h-13v11.6zm125.5-398h2.1v-6h-2.1zm0 18.7h6V2368h-6zm38-13.3h-6v13.3h6zm0-11.3h-2.3v6h2.4zm126 402.6h2.7v1.3h15.7V2749h-13v2.2h-5.4zm166.6 1.3v-1.3h2.7v-8.1h-5.4v-2.2h-13v11.6zm-316.5-398v-6h-2.8v6zm20-6h-2v6h2zm-11.7 0h-2.6v6h2.6zm4.3 0h-2.8v6h2.8zm-11 6h2.5v-6h-2.6zm-4.4 18.7h15.4V2368h-15.4zm-7.6-18.6h2.3v-6h-2.3zm-206.8 763-.2-.1-.2-.2-.2.1-.9.5v.5h3-.1zm-.4 6.5.2-.2.8-.4.2-.2h.1-2.4v.1l.9.5zm-9-.8.2.2.8.4.2.1h.2l.8-.6v-.1h-2.4zm1.2-6-.3.1-.2.2-1.3.8h-.2 3v-.5l-.8-.5zm464.4.3-.3-.1-.3-.2-.2.1-.8.5v.5h3-.2zm-.6 6.5.2-.2.8-.4.3-.2h.1-2.4v.1l.8.5zm-9-.8.2.2.8.4.3.1h.2l.8-.6v-.1h-2.4zm1.3-6-.3.1-.3.2-1.3.7-.1.1h3v-.5l-.8-.5zm112-388.9h6.5v5.8h-17v8.9h-5.5v8h2.8v10.3h-13.1v-1.3H4137v185.7h2v7.4h-2v17.4h2v7.4h-2c0 2.9-.2 5.7-.4 8.5v2.7l-1.5 12-.6 3.8-1.6 7.8-1 4.3a152.6 152.6 0 0 1-5.5 17.5l-1.3 3.5c-1 2.7-2.2 5.3-3.4 7.8l-.7 1.6-4.5 8.5-1.6 2.7c-1 1.8-2.1 3.6-3.3 5.3l-1.9 2.8c-1 1.6-2.1 3-3.2 4.5l-2 2.5-3.3 4.1-1.8 2a110 110 0 0 1-4.5 4.8l-.6.5-5 4.4-1.5 1.2-3.3 2.4-1.7 1-1.6 1v7.4h-5.8v7.2h-1.7v7.2l1-.1h.1l1.7.4.3.2 1 .8v.1h1.6l.1-.1 1-.8.3-.2 1.7-.4h.4v.2l-.3.2-.3.2-.4.2-1.2.6-.1.1h2.3v4.9h-1.7l1 .5.2.2.3.2.1.1v.1h-.3l-1.6-.2-.2-.2-1-.7h-2.1l-1 .7-.3.2-1.5.3h-.1l-1-.1v4.3l2.2 1.6.2.4c.5.7.9 1.6.9 2.5l-.4 1.8-.5.7-.5.8-.9.6-.5.4-1.2.3-.5.1v9l.3.3.3.2.6 1.4c0 1.2-1 2.2-2.2 2.2h-1.3c-1.2 0-2.2-1-2.2-2.2l.6-1.4.3-.2.3-.3v-9l-.5-.1-1.2-.3-.5-.4-1-.6-.4-.8-.5-.7-.4-1.8c0-1 .4-1.8.9-2.5l.2-.4 2.1-1.5h.1v-4.5h-1.1l-1.6-.2-.2-.2-1-.7h-2.1l-1 .7-.3.2-1.5.3-.4-.1.2-.2.3-.2.3-.2.8-.5h.1-1.7v-4.9h2.3-.2l-1-.7-.5-.3-.3-.1-.2-.3h-.1l.4-.1 1.7.4.3.2 1 .8.1.1h1.5l.2-.1.9-.8.3-.2 1.7-.4h.1l1 .1v-7.1h-1.7v-7.2h-5.9v-7.4l-1-.6-4-2.8-1.3-.8-1.3-1a85.2 85.2 0 0 1-5-4.4l-1.6-1.6-3.5-3.6-1.9-2.1a127 127 0 0 1-3.4-4.2l-1.7-2.1-.9-1-1.3-2-1.5-2.2a101.3 101.3 0 0 1-5.1-8l-2-3.2-3-5.9-1.5-3a155 155 0 0 1-4.2-9.5l-1-2.7-1-2.7-2.9-9-.7-2.4-.8-3-.2-1a162 162 0 0 1-3.2-16.4l-.2-1.2-.8-6.6-.2-2.5v-1.7l-.3-2.5-.2-7.5h-2.1v-7.4h2v-17.4h-2v-7.4h2v-185.7h-15.7v1.3h-13v-10.2h2.8v-8.1h-5.5v-8.9h-17v-5.8h6.4V2638h-6.4v-5.8h6.4v-189.8h-6.4v-5.8h6.4v-181.4h-6.4v-5.8h6.4v-19.6h-9.7l-1.1 1-79.6 79.6v38.6h1.4v3.5h-6.7v4.2h-1.3v6h1.3v5.3h-1.3v13.3h1.3v5.3h2.8l.7 11h1.7v3.5h-3l-2.3 7.2-2.3 7-2 27.8.3 1.1-.4 1.6-19.7 277 1.6 1.1.2.3.6 2-.8 2-.1.3-1.8 1-.2.2v.5l-.3 3.6h.8v2.3l.5.2.8.3 1 .7.6.5.8 1.2.3.6.4 2-.4 2.1-.3.6-.8 1.1-.6.5-1 .7-.8.3-.5.3v2l.4.6v.2l-.4.4-.4.5h-.5v13l1 .2 1 .3 1 .6.7.6.8 1.1.4.7.4 2.1-.2 1.8v.2l.8 1.1-1.5 1.5-1-.4-.9.6-.7.5-2.1.4h-.9l-1.3 1-.4.3-2 .5a5 5 0 0 1-5-5l.3-1.9.4-.7.6-.8.9-.6.6-.5 1.1-.3.6-.1.2-.4 1.3-1.5.6-.4 1.7-.7.5-.2v-13h-.5l-.4-.4-.5-.5v-.2l.5-.7v-2l-.3-.2-.6-.3-1.1-.8-.5-.4-.8-1.2-.3-.5-.4-2 .4-2.1.3-.6.8-1.1.5-.5 1-.8.7-.3h.3v-2.5h.7l-.3-4.3-1.5-1.2-.3-.3-.6-1.9.5-1.7.3-.3 1-1 .1-.2-19.7-277.8-.1-.9v-.4l-1.6-22.1-.4-6.8-4.6-13.8h-3v-3.5h1.7l.8-11h2.8v-5.3h1.2V2368h-1.2v-5.3h1.2v-6h-1.2v-4.2h-6.7v-3.5h1.4v-38.6l-80.6-80.6h-6.7v19.7h6.4v5.7h-6.4v181.4h6.4v5.8h-6.4v189.7h6.4v5.8h-6.4v98.6h6.4v5.8h-17v8.9h-5.4v8h2.7v10.3h-13v-1.3H3681v185.7h2v7.4h-2v17.4h2v7.4h-2c0 2.9-.3 5.7-.4 8.5l-.2 2.7a174 174 0 0 1-1.3 12l-.7 3.8-1.5 7.8-1 4.3a167.6 167.6 0 0 1-5.5 17.5l-1.4 3.5c-1 2.7-2.2 5.3-3.4 7.8l-.7 1.6c-1.4 3-3 5.8-4.5 8.5l-1.5 2.7a135.3 135.3 0 0 1-8.5 12.6l-1.9 2.5-3.4 4.1-1.7 2a99 99 0 0 1-4.6 4.8l-.6.5c-1.6 1.6-3.3 3-5 4.4l-1.5 1.2-3.3 2.4-1.7 1-1.5 1v7.4h-5.9v7.2h-1.7v7.2l1-.1h.2l1.6.4.4.2.9.8.1.1h1.5l.2-.1.9-.8.3-.2 1.7-.4h.4v.2l-.3.1-.3.3-.4.2-1.1.6-.2.1h2.3v4.9h-1.7l1 .5.2.1.3.3.2.1v.1h-.4l-1.5-.2-.3-.2-1-.7h-2.1l-1 .7-.2.2-1.5.3h-.2l-1-.1v4.3h.1l2 1.6.3.4c.5.7.9 1.6.9 2.5l-.4 1.8-.4.7-.6.8-.9.6-.5.4-1.1.3-.6.1v9l.3.3.3.2.6 1.4c0 1.2-1 2.2-2.2 2.2h-1.3c-1.2 0-2.2-1-2.2-2.2l.6-1.4.3-.2.3-.3v-9l-.5-.1-1.2-.3-.5-.4-1-.6-.4-.8-.5-.7-.4-1.8c0-1 .4-1.8.9-2.5l.3-.4 2-1.5h.1v-4.5h-1.1l-1.5-.2-.2-.2-1-.7h-2.2l-1 .7-.2.2-1.5.3-.5-.1.2-.2.3-.2.3-.2.8-.5h.2-1.8v-4.9h2.3-.2l-1-.7-.4-.2-.4-.3-.2-.1v-.1l.4-.1 1.6.4.4.2.9.8.1.1h1.5l.2-.1.9-.8.4-.2 1.6-.4h.2l1 .1v-7.1h-1.8v-7.2h-5.8v-7.4l-1-.6c-1.4-.8-2.7-1.8-4.1-2.8l-1.3-.8-1.3-1a88.7 88.7 0 0 1-5-4.4l-1.6-1.6-3.5-3.6-1.8-2.1a48.7 48.7 0 0 1-3.5-4.2l-1.7-2.1-.8-1-1.4-2-1.5-2.2-2-3-3.1-5-1.9-3.2-3.1-5.9-1.5-3a155 155 0 0 1-4.2-9.5l-1-2.7-1-2.7c-1-3-2-6-2.8-9l-.8-2.4-.8-3-.2-1c-1.3-5.3-2.4-10.7-3.2-16.4l-.2-1.2-.8-6.6-.1-2.5-.2-1.7-.2-2.5-.2-7.5h-2v-7.4h2v-17.4h-2v-7.4h2v-185.7h-15.7v1.3h-13v-10.2h2.7v-8.1h-5.4v-8.9H3500v-5.8h6.4V2638h-6.4v-5.8h6.4v-189.8h-6.4v-5.8h6.4v-181.4h-6.4v-5.8h6.4v-189.6h-6.4v-5.8h6.4v-191.7h-6.4v-5.9h6.4v-177.8h-6.4V1663h685.4v15.5h-6.4v177.8h6.4v5.9h-6.4V2054h6.4v5.8h-6.4v189.7h6.4v5.7h-6.4v181.4h6.4v5.8h-6.4v189.7h6.4v5.8h-6.4v98.6" transform="matrix(.03528 0 0 -.03528 -92.6 127.3)" clip-path="url(#j)" fill="#4255ae"/><path d="M4547.4 1676.5a271.9 271.9 0 0 1-271.7 258.8 272 272 0 0 1-271.8-258.8h543.5" transform="matrix(.03528 0 0 -.03528 -92.6 127.3)" clip-path="url(#k)" fill="#4d6dbe"/><path d="M4904.4 2214.5s2.7 2 2.7 3.4v3s2.4 2 5 4.7l-.9-5.2-.7-.5-.3-.3v-2.2l.2-1.3-.4-2-2.7-2.7-1.8 1.2h-1.1zm2.5-17-1.4 1.1v8s1.9.9 3.5 2.2zm2-20.5c1.6 0 2.9-1.3 2.9-2.8v-1.5h-7v2c0 1.3 1 2.3 2.3 2.3zm-573.7-3.9c0 1.2 1 2.1 2.2 2.1h1.5c1 0 1.8-.7 1.8-1.7v-1.6h-5.5zm2.2 26c1.3-1 2.7-1.6 2.7-1.6v-6l-1-.8zm-1 5.6v2.7l-.7.5-.8 4c2-2.1 4-3.5 4-3.5v-2.4c0-1 2.2-2.5 2.2-2.5v-1.4h-1l-1.3-1-2.2 2zM4476 2177h1.8c1.3 0 2.3-1 2.3-2.2v-2.1h-7v1.5c0 1.6 1.3 2.8 2.9 2.8zm-.1 31.8 1.2-1 2.3-1.2v-8l-1.4-1.1zm-1.4 7.3.2 1.3v2.2l-.3.3-.7.5-1 5.2c2.7-2.8 5-4.7 5-4.7v-3c0-1.4 2.9-3.4 2.9-3.4v-1.9h-1.2l-1.8-1.2-2.7 2.7zm563.6-12.6s2.2 1.5 2.2 2.5v2.4s1.9 1.4 4 3.5l-.8-4-.8-.5v-1.7l.1-1-.3-1.5-2.1-2-1.4.9h-1zm2-12.8-1.1.8v6s1.5.7 2.8 1.7zm1.6-15.5c1.2 0 2.2-1 2.2-2.1v-1.1h-5.5v1.5c0 1 .8 1.7 1.8 1.7zm70.1-295.4v9.6h-16.3v14.2h-2.2v7.3h-4.3v127.4h4.3v2a4 4 0 0 1 2.2 3.5l-.5 1.8h.5v14.5h4.6v12.2h-4v12.2h6.6v12.6h-2.5v17.1h5.2v7h-9.2v7.3h-17.3v15.4h3.5v7h-12.6v3.7h-1.8v7h-8.2v6.4h-5.3v2.2h-3l-.1.1-1.2 1.3-.2.1c-.6.3-1.4.6-2.6.5 0 0-.7 1.4.6 3 1.2 1.5 1.2 2.5 1.6 4 .3 1.3.5 4.2.5 4.2s3.6-1.4 3.7.5c.1 2 1 4.6 0 4.7-1 0-2.3 2-4.2 1.6-2-.4-3 0-3 0v-1.5l-2.2-2.1-2.6-1.7s.9 1.2 1 2.5c0 .6-1 1.7-2 2.6l2 10 .7 1.2c.8 2 3 7 1.6 7.1h-.7l.9 4.7c2 2.3 4 5.2 4.1 8l-2.7-.9 1 5.5 2.5-.5v.3l1.4.7h.5l.2.8h-.5l-1 1.3v.2l-5.7 1v-.2l-1.4-.8h-.5l-.2-.8h.5l1-1.2v-.3l2.5-.4-1.2-5.9c-2.8-.9-6.4-2.2-7.6-3a6.2 6.2 0 0 1-2.3-3c-.5-.9-1-1.8-1.8-2.5l.2 1.9a3 3 0 0 1-2.8 3.2 3 3 0 0 1-3.3-2.6l-.3-2.7.3-1.5-2 .6s-1 5.5-6 6.8c-5 1.3-8.4 2.2-10.6 2.2-2.2 0 5.9-7.3 5.9-7.3s2-5.9 3.5-9.2c1.6-3.3 7.2-6.7 7.2-6.7l-.4-1.8s-5.5 1.6-5.6 0c-.1-1.7-.8-5 .4-6.6 1.3-1.7-3-.5-3-.5s-1.2 3.9-5.8 3.7c-1.7-.1-2.3-1.8-2.3-3.8a8.8 8.8 0 0 1-4-1.3c-.6 1.1-1.8 2-3.2 2a4 4 0 0 1-3.8-3.9c0-1.8 1.4-3.4 3.2-3.7l-.2-1.8c0-1 .2-2 .6-3a7 7 0 0 1-2.4-2.4l-.4-1-.6-1.7h-1.5v-2.2h-5.2v-6.5h-8.3v-6.9h-1.7v-3.7h-44.7v3.6h-1.7v6.9h-7.9v6.4h-6v.1l-.1 1.3v.4l-.7 1.6-.3.2-1.2 1-.5.2c-.8.3-1.6.4-2.7.4 0 0-1 1.9.7 4 1.6 2 1.6 3.3 2 5.2.5 1.8.8 5.6.8 5.6s4.5-1.9 4.6.8c.2 2.6 1.2 6 0 6-.8.2-2 1.7-3.6 2.2h-1.8c-2.4-.5-3.6.2-3.6.2v-2.2l-2-2-1-.7c-1-1-3.3-2.2-3.3-2.2s1.2 1.6 1.3 3.2c.1.8-1.2 2.3-2.5 3.5l2.5 13.3 1 1.5c1 2.7 3.7 9.4 2 9.5h-1l1.2 6.2c2.6 3.1 5.1 7 5.3 10.6l-1-.4-2.5-.8 1.3 7.3 3.2-.6v.3l1.7 1 .7-.1.2 1.1-.6.1-1.3 1.6v.3l-7.3 1.3v-.2l-1.7-1.1-.7.1-.2-1.1.7-.1 1.2-1.6v-.3l3.1-.6-1.4-7.7-2.9-1a35 35 0 0 1-6.8-3.1 8 8 0 0 1-3-3.8c-.5-1.3-1.3-2.5-2.2-3.5l.3 2.6a4 4 0 0 1-2 3.8l-1.6.4a4 4 0 0 1-4.2-3.5l-.4-3.5.4-2-2.6.8s-1.2 7.3-7.6 9c-6.4 1.8-10.6 3-13.4 3-2.7 0 7.4-9.8 7.4-9.8s2.5-7.8 4.6-12.1c2-4.4 9-9 9-9l-.4-2.4s-2.8.9-4.8 1l-2-.4-.4-.6c-.1-2.2-1-6.5.6-8.7l-.5-1.2-2.6.4-.8.2s-1.5 5-7.3 4.8l-1.7-.7c-1-.9-1.2-2.4-1.2-4 0-3.6 1.2-8 2.2-10l.7-.9c1.4-1 2.8-9 2.8-9s-3.4 1.3-5.1-.9l-1-2.2v-2.1h-4.9v-6.4h-7.9v-7h-1.7v-3.6h-2.6v3.5a38.7 38.7 0 0 1-38.6 38.6h-14v9.4h3.5v7h-57.6v3h-2.3c-.4 1-1 2-1.8 2.7h-.1c-.8.8-1.7 1.3-2.7 1.6v.1l.4 1.7-.8 2-.6.4-1 .6v11l.6.5.4.4.7 2-.7 2-.4.4-.5.5v1.7h-.5v3.2h-.6v-3.2h-.4v-1.7l-.6-.5-.4-.4-.6-2 .6-2 .4-.4.6-.5v-11l-.9-.6-.6-.4-.8-2 .5-1.7h-.2c-1-.4-1.8-1-2.6-1.6l-.1-.1a8 8 0 0 1-1.8-2.7h-2.3v-3h-31.6v2.8h-.7v15.3h-1v-15.3h-.6v-2.8h-36.2v3h-2.2c-.5 1-1 2-1.9 2.7h-.1a6 6 0 0 1-2.6 1.6l-.2.1.5 1.7-.8 2-.6.4-.9.6v11l.6.5.4.4.6 2-.6 2-.4.4-.6.5v1.7h-.4v3.2h-.6v-3.2h-.5v-1.7l-.5-.5-.4-.4-.7-2 .7-2 .4-.4.5-.5v-11l-.9-.6-.6-.4-.8-2 .5-1.7h-.1c-1-.4-1.9-1-2.6-1.6l-.2-.1a7.8 7.8 0 0 1-1.8-2.7h-2.3v-3h-53v-7h3.4v-9.4h-13.9a38.7 38.7 0 0 1-38.6-38.7v-3.4h-1.8v3.7h-1.7v6.9h-7.9v6.4h-4.8v1.5l-.1.6-1 2.2c-1.7 2.2-5 .9-5 .9s1.2 8 2.7 9l.7 1c1 2 2.3 6.3 2.3 9.8 0 1.8-.4 3.3-1.3 4l-1.7.8c-5.8.3-7.3-4.8-7.3-4.8s-5.5-1.6-3.9.6.7 6.5.6 8.7l-.4.6-2 .4c-1.2 0-2.7-.4-3.7-.7l-1-.3-.5 2.5s7 4.5 9 8.9 4.5 12 4.5 12 2.6 2.5 4.8 5c2.2 2.4 4 4.8 2.7 4.8-2.8 0-7-1.1-13.4-2.9-6.4-1.7-7.6-9-7.6-9l-2.6-.8.4 2-.4 3.5c0 1-.6 2-1.4 2.7a4 4 0 0 1-6.4-3.4l.3-2.6c-1 1-1.7 2.2-2.2 3.5a8.1 8.1 0 0 1-3 3.8 50 50 0 0 1-9.7 4l-1.4 7.8 3.1.6v.3l1.2 1.6h.7l-.2 1.2-.7-.1-1.7 1v.3l-7.4-1.3v-.3l-1.2-1.6h-.6l.2-1.2.6.1 1.7-1 .1-.3 3.2.6 1.1-6.1.2-1.2-2.5.8-1 .4c0-1 .2-1.9.5-2.8 1-2.7 2.8-5.5 4.8-7.8l1.2-6.3-1 .1c-1.7-.1 1-6.8 2.1-9.5l1-1.5 2.4-13.3c-1.3-1.2-2.6-2.7-2.5-3.5.1-1.6 1.3-3.2 1.3-3.2l-1.3.7-2 1.5-1.9 1.6-1 1.1v2.2s-1.2-.7-3.7-.1l-1.7-.1c-1.6-.5-2.8-2-3.7-2.1l-.5-.7c-.2-.7 0-2 .3-3.4l.2-2c.1-2.7 4.6-.8 4.6-.8s.3-3.8.8-5.6c.4-2 .4-3.3 2-5.3s.7-4 .7-4c-1 .1-2 0-2.7-.3l-.5-.2-1.2-1-.3-.2-.6-1.6v-.4l-.2-1.3v-.1h-6v-6.4h-7.9v-7h-1.7v-3.6h-.8v.1h-49.6v3.7h-1.9v7h-8.2v6.4h-5.2v2.2h-1.4l-.7 1.7-.4 1a7 7 0 0 1-2.4 2.4c.4 1 .6 2 .6 3l-.2 1.8c1.8.3 3.2 1.9 3.2 3.7a3.8 3.8 0 0 1-7.1 1.9 8.8 8.8 0 0 1-3.9 1.3c0 2-.5 3.7-2.3 3.8-4.6.2-5.7-3.7-5.7-3.7s-4.4-1.2-3.1.5c1.3 1.6.6 5 .5 6.6-.2 1.6-5.7 0-5.7 0l-.3 1.8s5.5 3.4 7.1 6.7c1.6 3.3 3.6 9.2 3.6 9.2s8 7.3 5.8 7.3-5.5-.9-10.5-2.2c-5-1.3-6-6.8-6-6.8l-2-.6.2 1.5-.2 2.7a3 3 0 0 1-3.4 2.6 3 3 0 0 1-2.8-3.2l.2-2c-.7.9-1.3 1.7-1.7 2.7-.5 1-1 1.9-2.3 2.9-1.2.8-4.8 2.1-7.7 3l-1.1 6 2.5.3v.3l1 1.1.4.1-.1.9-.5-.1-1.4.8v.2l-5.8-1v-.2l-1-1.2-.5-.1.2-.9.5.1 1.3-.7.1-.3 2.5.5 1-5.5-2.7.9c.1-2.8 2-5.6 4.2-8l.9-4.7h-.7c-1.4 0 .8-5.1 1.6-7.1l.7-1.1 2-10c-1-1-2.1-2.1-2-2.7 0-1.2 1-2.5 1-2.5l-2.7 1.7-2.3 2v1.7s-.9-.5-2.8 0c-2 .4-3.3-1.6-4.3-1.7-.9-.1 0-2.7 0-4.6.2-2 3.7-.6 3.7-.6s.2-2.9.6-4.3c.3-1.4.3-2.4 1.6-4 1.2-1.5.6-3 .6-3-1.2.2-2 0-2.7-.4h-.2l-1.1-1.4h-3.2v-2.3h-5.2v-6.5h-8.3v-6.9h-1.8v-3.7h-12.5v-7h3.4v-15.7h-3.4v-.2h-13.9v-6.8h-9.2v-7h5.3v-17.5h-2.5v-12.2h6.4v-12.2h-3.9v-12.2h4.6v-14.5h.5l-.5-1.8c0-1.5.9-2.8 2.2-3.4v-2h4.4v-127.5h-4.4v-7.3h-2.2v-14.2h-16.3v-9.6h3.5v-14.1h-3.5v-9.7h15.6v-172h23.1v.7h116.3v-.2h535.4v.2h115.4v-.7h23.1v172h15.6v9.7h-3.4v14h3.4" transform="matrix(.03528 0 0 -.03528 -92.6 127.3)" clip-path="url(#l)" fill="#3646a3"/><path d="M3061 2117h-33.7v38.6a16.9 16.9 0 0 0 33.8 0zm-43.1 0h-33.7v38.6a16.9 16.9 0 0 0 33.7 0zm-43.2 0H2941v38.6a16.9 16.9 0 1 0 33.7 0zm31 333v18c0 3 1 5.4 2.5 5.4 1.3 0 2.5-2.5 2.5-5.5v-17.8zm-8.4 0v18c0 3 1.6 5.4 3.5 5.4 2 0 3.5-2.5 3.5-5.5v-17.8zm-6.4 0v18c0 3 1.1 5.4 2.5 5.4s2.5-2.5 2.5-5.5v-17.8zm130.7-171.5h-4.6l-1.6 3.6v35.4h2.5v8.9h-2.5l-5.6 13.8h-2.4l-2.2 33.3h-.5l-1 34h-2.5l-1-34h-.5l-2.3-33.3h-1.5l-2.7-6.6-41.9 97h1.2v4.6h-38.8v5.5h2v8.9h-4v25h4.4v9h-2.5l-5.6 13.8h-2.4l-2.2 33.2h-.5l-1 33.2 1 2a2.3 2.3 0 0 1-4.6 0l1-2-1-33.2h-.4l-2.3-33.2h-1.5l-5.6-13.9h-2.5v-8.9h3.4v-25h-3.8v-8.9h2v-5.5h-38v-4.5h1.3l-41.9-97.1-2.7 6.6h-2.3l-2.3 33.3h-.5l-1 34h-2.4l-1-34h-.6l-2.2-33.3h-1.5l-5.6-13.8h-2.5v-8.9h2.4v-35.4l-1.5-3.6h-4.5v-9.8h3.7V2183h8.2v-494h61.4v107.9a47 47 0 1 0 94 0V1689h61.4v494h8.2v85.7h3.9v9.8" transform="matrix(.03528 0 0 -.03528 -92.6 127.3)" clip-path="url(#m)" fill="#4562b7"/><path d="M5367.4 1673.4a216.2 216.2 0 0 1-216 205.7 216.2 216.2 0 0 1-216-205.7h432" transform="matrix(.03528 0 0 -.03528 -92.6 127.3)" clip-path="url(#n)" fill="#4255ae"/><path d="M3373.3 1681.4a189.6 189.6 0 0 1-378.9 0h379" transform="matrix(.03528 0 0 -.03528 -92.6 127.3)" clip-path="url(#o)" fill="#4255ae"/><path d="M3750.4 1680.3a144.1 144.1 0 0 1-288 0h288" transform="matrix(.03528 0 0 -.03528 -92.6 127.3)" clip-path="url(#p)" fill="#4562b7"/><path d="M5331.9 1748.9a68.3 68.3 0 0 1-47.7-19.3 68.4 68.4 0 0 1-94.6.6 68.5 68.5 0 0 1-115.5-46.6h326.3a68.6 68.6 0 0 1-68.5 65.3" transform="matrix(.03528 0 0 -.03528 -92.6 127.3)" clip-path="url(#q)" fill="#4562b7"/><path d="M5099.8 1704.3c-5 0-9.6-2-13-5.2a18.4 18.4 0 0 1-13 5.2c-4.9 0-9.4-2-12.7-5.1-3.3 3.2-7.8 5-12.8 5-10 0-18.1-7.8-18.6-17.7h88.8a18.7 18.7 0 0 1-18.7 17.8" transform="matrix(.03528 0 0 -.03528 -92.6 127.3)" clip-path="url(#r)" fill="#739dd8"/><path d="M4339.7 1683.5a85.9 85.9 0 0 1-171.6 0h171.6" transform="matrix(.03528 0 0 -.03528 -92.6 127.3)" clip-path="url(#s)" fill="#739dd8"/><path d="M4253.9 1683.5h85.8a86 86 0 0 1-85.8 81.8v-81.8" transform="matrix(.03528 0 0 -.03528 -92.6 127.3)" clip-path="url(#t)" fill="#4562b7"/><path d="M4136.4 1704.3c-5 0-9.6-2-13-5.2a18.4 18.4 0 0 1-12.9 5.2c-5 0-9.5-2-12.8-5.1a18.6 18.6 0 0 1-31.4-12.7h88.8a18.7 18.7 0 0 1-18.7 17.8" transform="matrix(.03528 0 0 -.03528 -92.6 127.3)" clip-path="url(#u)" fill="#739dd8"/><path d="M4389.8 1704.3c-5 0-9.6-2-13-5.2a18.4 18.4 0 0 1-12.9 5.2c-5 0-9.5-2-12.8-5.1-3.3 3.2-7.8 5-12.8 5-10 0-18.1-7.8-18.6-17.7h88.8a18.6 18.6 0 0 1-18.7 17.8" transform="matrix(.03528 0 0 -.03528 -92.6 127.3)" clip-path="url(#v)" fill="#739dd8"/><path d="M4878.5 1704.3c-5 0-9.6-2-13-5.2a18.4 18.4 0 0 1-13 5.2c-4.9 0-9.4-2-12.7-5.1a18.6 18.6 0 0 1-31.4-12.7h88.6a18.7 18.7 0 0 1-18.6 17.8" transform="matrix(.03528 0 0 -.03528 -92.6 127.3)" clip-path="url(#w)" fill="#739dd8"/><path d="M3467.6 1758h-.7l-2-.6 2 .6.5.1 1.2.2zm-62.3-63.3-.1.1.4 1.6zm231 80.9h-15.5v5.2h5.7v7h-5.7v142h5.7v7h-5.7V2054h5.7v7h-5.7v125.3h9.3v8h-9.3v66.2h6v8.2h-16l-48 39.4h-.2l-.5 11.3h-1.1l-1.2 27.2h1.6a1.7 1.7 0 1 1 0 3.3h-1.8v2.6l2.1 1.6.5.7.6 2 .2.6a5.3 5.3 0 0 1-10.7 0 5 5 0 0 1 1.1-3c.7-1 1.5-1.6 2.5-2l-.1-2.5h-1.5c-1 0-1.7-.7-1.7-1.6 0-1 .8-1.7 1.7-1.7h1.3l-1.2-27.2h-1.2l-.5-11.3h-100.4a472.5 472.5 0 0 0-67.4 89.6l-.8 18.7h-1.1l-1.2 27.2h1.6c1 0 1.7.8 1.7 1.7 0 .9-.7 1.6-1.7 1.6h-1.8l-.1 2.6 2.2 1.6.5.8.6 2 .2.5a5.3 5.3 0 1 1-10.7 0c0-1.1.5-2.1 1-3h.1c.6-1 1.5-1.6 2.5-2l-.1-2.5h-1.5a1.7 1.7 0 1 1 0-3.3h1.3l-1.2-27.2h-1.2l-.9-18.7-1.7-2.8c-3.6-6.2-7.3-12.2-11.2-18.2l-2.7-4.1c-4.6-6.8-9.3-13.5-14.3-20.1l-2.7-3.6c-5-6.5-10-13-15.4-19.2l-.6-.8a490 490 0 0 0-17.6-19.5l-1.2-1.3h-100.4l-.5 11.3h-1l-1.3 27.2h1.7a1.7 1.7 0 0 1 0 3.3h-1.8l-.1 2.6 2.1 1.6.5.7.7 2 .2.6c0 3-2.4 5.3-5.4 5.3-3 0-5.3-2.3-5.3-5.3a5.3 5.3 0 0 1 3.6-5l-.2-2.5h-1.4c-1 0-1.7-.7-1.7-1.6 0-1 .7-1.7 1.6-1.7h1.4l-1.3-27.2h-1.1l-.6-11.3h-.9l-48-39.4h-15.9v-8.2h6v-66.3h-8.7v-8h9.3V2061h-5.6v-7h5.5v-6.6h.1v-110.6h-5.6v-7h5.5v-6.6h.1v-135.5h-5.6v-7h5.6v-5.1H3123v-54.7c-4-2.7-7.5-5.7-10-9.2h-3.8V1678h95.8v.5-.5h43.8c.4 1.3 1 2.5 1.5 3.7a63.5 63.5 0 0 0 32.2 78.4l-2.5-.2.8.1 1.8.1a63.8 63.8 0 0 0 86.6-82.1h78.8l1.7 4.2a63.2 63.2 0 0 0 32.3 77.8c-1.7 0-3.4 0-5.1-.3l-1.3-.1-3.8-.6 3.7.7 1.2.1c1.8.2 3.7.3 5.5.3a63.8 63.8 0 0 0 86.5-82.1h67.7v97.7" transform="matrix(.03528 0 0 -.03528 -92.6 127.3)" clip-path="url(#x)" fill="#3646a3"/><path d="M3848.7 1745.7a68.3 68.3 0 0 1-47.7-19.3 68.5 68.5 0 0 1-94.6.6 68.6 68.6 0 0 1-115.5-46.6h326.3a68.6 68.6 0 0 1-68.5 65.3" transform="matrix(.03528 0 0 -.03528 -92.6 127.3)" clip-path="url(#y)" fill="#4d6dbe"/><path d="M3942 1701a19 19 0 0 1-13-5.1 18.4 18.4 0 0 1-12.8 5.2c-5 0-9.5-2-12.8-5a18.7 18.7 0 0 1-31.4-12.7h88.7a18.7 18.7 0 0 1-18.7 17.7" transform="matrix(.03528 0 0 -.03528 -92.6 127.3)" clip-path="url(#z)" fill="#739dd8"/><path d="M3615.8 1721.2a40.7 40.7 0 0 1-28.5-11.5 40.9 40.9 0 0 1-56.9.2 41.2 41.2 0 0 1-69.4-28h196c-1 21.9-19 39.3-41.2 39.3" transform="matrix(.03528 0 0 -.03528 -92.6 127.3)" clip-path="url(#A)" fill="#739dd8"/><path d="M3006.7 1682.8a85.9 85.9 0 0 1-171.6 0h171.6" transform="matrix(.03528 0 0 -.03528 -92.6 127.3)" clip-path="url(#B)" fill="#4562b7"/><path d="M2920.9 1682.8h85.8a86 86 0 0 1-85.8 81.8v-81.8" transform="matrix(.03528 0 0 -.03528 -92.6 127.3)" clip-path="url(#C)" fill="#4255ae"/><path d="M3087.8 1723.7a40.7 40.7 0 0 1-28.6-11.5 40.9 40.9 0 0 1-56.8.3 41.2 41.2 0 0 1-69.4-28h196c-1 21.8-19 39.2-41.2 39.2" transform="matrix(.03528 0 0 -.03528 -92.6 127.3)" clip-path="url(#D)" fill="#739dd8"/><path d="M2857.1 1697.7a12 12 0 0 1-8.4-3.4 12 12 0 0 1-8.3 3.4 12 12 0 0 1-8.3-3.3 12 12 0 0 1-20.3-8.2h57.4a12 12 0 0 1-12.1 11.5" transform="matrix(.03528 0 0 -.03528 -92.6 127.3)" clip-path="url(#E)" fill="#739dd8"/></svg>